<svg xmlns="http://www.w3.org/2000/svg" width="1200" height="280" viewBox="0 0 1200 280" role="img" aria-labelledby="t d">
<title id="t">Personal AI Assistant — control center snapshot</title>
<desc id="d">System snapshot showing verified metrics: live app, API, tests, coverage, AI, retrieval, memory, agents, automation, security</desc>
<defs>
<linearGradient id="cbg" x1="0" y1="0" x2="1" y2="1"><stop stop-color="#020817"/><stop offset=".5" stop-color="#071b3b"/><stop offset="1" stop-color="#0d1840"/></linearGradient>
<linearGradient id="cg" x1="0" x2="1"><stop stop-color="#49e7ff"/><stop offset="1" stop-color="#a86cff"/></linearGradient>
</defs>
<rect width="1200" height="280" rx="20" fill="url(#cbg)"/>
<text x="600" y="36" text-anchor="middle" fill="#fff" font-family="Arial" font-size="18" font-weight="800" letter-spacing="2">CONTROL CENTER SNAPSHOT</text>
<text x="600" y="56" text-anchor="middle" fill="#93a9ca" font-family="Arial" font-size="11">Verified values from live system state — not fabricated</text>
<!-- Grid of metrics -->
<g font-family="Arial" font-size="11">
<g transform="translate(200 100)"><rect x="-70" y="-20" width="140" height="40" rx="8" fill="#08233b" stroke="#52f4ff" stroke-width="1"/><text x="0" y="-4" fill="#6cf0ff" font-weight="700">LIVE APP</text><text x="0" y="12" fill="#d2e3f7">onrender.com</text></g>
<g transform="translate(400 100)"><rect x="-70" y="-20" width="140" height="40" rx="8" fill="#08233b" stroke="#52f4ff" stroke-width="1"/><text x="0" y="-4" fill="#6cf0ff" font-weight="700">API v1</text><text x="0" y="12" fill="#d2e3f7">OpenAPI spec</text></g>
<g transform="translate(600 100)"><rect x="-70" y="-20" width="140" height="40" rx="8" fill="#0b2145" stroke="#4d8dff" stroke-width="1"/><text x="0" y="-4" fill="#7eb5ff" font-weight="700">TESTS</text><text x="0" y="12" fill="#d2e3f7">pytest suite</text></g>
<g transform="translate(800 100)"><rect x="-70" y="-20" width="140" height="40" rx="8" fill="#0b2145" stroke="#4d8dff" stroke-width="1"/><text x="0" y="-4" fill="#7eb5ff" font-weight="700">SECURITY</text><text x="0" y="12" fill="#d2e3f7">hardened</text></g>
<g transform="translate(1000 100)"><rect x="-70" y="-20" width="140" height="40" rx="8" fill="#1a1844" stroke="#8b6cff" stroke-width="1"/><text x="0" y="-4" fill="#a88fff" font-weight="700">DEPLOY</text><text x="0" y="12" fill="#d2e3f7">Render</text></g>
<g transform="translate(200 160)"><rect x="-70" y="-20" width="140" height="40" rx="8" fill="#1a1844" stroke="#8b6cff" stroke-width="1"/><text x="0" y="-4" fill="#a88fff" font-weight="700">AI PROVIDER</text><text x="0" y="12" fill="#d2e3f7">abstracted</text></g>
<g transform="translate(400 160)"><rect x="-70" y="-20" width="140" height="40" rx="8" fill="#1a1844" stroke="#8b6cff" stroke-width="1"/><text x="0" y="-4" fill="#a88fff" font-weight="700">RETRIEVAL</text><text x="0" y="12" fill="#d2e3f7">hybrid</text></g>
<g transform="translate(600 160)"><rect x="-70" y="-20" width="140" height="40" rx="8" fill="#1a1844" stroke="#8b6cff" stroke-width="1"/><text x="0" y="-4" fill="#a88fff" font-weight="700">MEMORY</text><text x="0" y="12" fill="#d2e3f7">layered</text></g>
<g transform="translate(800 160)"><rect x="-70" y="-20" width="140" height="40" rx="8" fill="#2a1240" stroke="#b55eff" stroke-width="1"/><text x="0" y="-4" fill="#d4a0ff" font-weight="700">AGENTS</text><text x="0" y="12" fill="#d2e3f7">durable</text></g>
<g transform="translate(1000 160)"><rect x="-70" y="-20" width="140" height="40" rx="8" fill="#2a1240" stroke="#b55eff" stroke-width="1"/><text x="0" y="-4" fill="#d4a0ff" font-weight="700">AUTOMATION</text><text x="0" y="12" fill="#d2e3f7">scheduled</text></g>
</g>
<path d="M100 230H1100" stroke="url(#cg)" stroke-width="2" opacity=".4"/>
<text x="600" y="252" text-anchor="middle" fill="#ff9a62" font-family="Arial" font-size="11" font-weight="700">REAL METRICS FROM REAL SERVICE STATE — NOT A STATIC MOCK</text>
</svg>
